<svg width="320" height="40" viewBox="0 0 320 40" fill="none" xmlns="http://www.w3.org/2000/svg">
<path d="M159.354 34.4716H148.575V5.65474H159.354V34.4716ZM149.627 33.419H158.301V6.70737H149.627V33.419ZM174.352 34.4716H163.789V5.65474H185.857C189.018 5.39874 192.166 6.28626 194.728 8.15579C195.831 9.16487 196.686 10.4151 197.226 11.809C197.766 13.203 197.977 14.7028 197.842 16.1916C197.999 18.7642 197.181 21.3015 195.549 23.2968C193.619 25.5116 190.406 26.6526 186.002 26.6926C184.893 26.7221 176.579 26.6926 174.358 26.6926L174.352 34.4716ZM164.836 33.419H173.299V25.6295H173.827C173.935 25.6295 184.728 25.6632 185.977 25.6295C190.08 25.5937 193.029 24.5768 194.754 22.5916C196.206 20.7862 196.927 18.5014 196.775 16.1895C196.904 14.8555 196.725 13.5097 196.25 12.2563C195.775 11.0029 195.018 9.87573 194.038 8.96211C191.662 7.25706 188.756 6.4567 185.842 6.70527H164.842L164.836 33.419ZM183.621 20.219H173.227V12.3747H183.69C184.432 12.2723 185.188 12.3588 185.887 12.6264C186.586 12.894 187.207 13.3339 187.69 13.9053C188.129 14.6357 188.336 15.4821 188.284 16.3326C188.324 17.1223 188.153 17.9084 187.789 18.6105C187.29 19.2124 186.645 19.6757 185.914 19.9559C185.185 20.2361 184.395 20.3238 183.621 20.2105V20.219ZM174.28 19.1663H183.621C185.347 19.1663 186.417 18.8063 186.89 18.0653C187.151 17.5266 187.269 16.93 187.234 16.3326C187.28 15.7054 187.144 15.0782 186.842 14.5263L186.829 14.5074C186.328 13.7705 185.333 13.4274 183.69 13.4274H174.28V19.1663ZM217.053 34.8968C207.6 34.8968 201.958 32.5495 199.808 27.7221C199.457 26.7897 199.218 25.8185 199.097 24.8295L199.004 24.2232H210.25L210.324 24.6653C210.411 25.1141 210.602 25.5366 210.88 25.899C211.324 26.4358 212.806 27.3368 217.724 27.3368C223.636 27.3368 223.636 26.299 223.636 25.7411C223.636 24.8 222.952 24.4779 218.13 23.9642L217.215 23.8779C215.4 23.7074 213.105 23.4905 212.057 23.4C203.215 22.6 199.267 19.8526 199.267 14.4947C199.267 8.86737 205.985 5.23158 216.383 5.23158C224.865 5.23158 230.33 7.46737 232.623 11.8821C233.166 12.909 233.533 14.021 233.703 15.1705L233.777 15.7621H222.518L222.472 15.2863C222.427 14.9145 222.269 14.5657 222.017 14.2884C221.596 13.7242 220.265 12.7916 216.135 12.7916C211.063 12.7916 210.364 13.44 210.364 14.139C210.364 15.0716 211.966 15.4021 217.101 15.9516C219.242 16.1263 222.684 16.48 223.863 16.6232C231.276 17.4274 234.583 20.1074 234.583 25.3158C234.585 29.6842 231.543 34.8968 217.053 34.8968ZM200.234 25.2758C200.339 25.9701 200.521 26.6505 200.775 27.3053C202.733 31.7032 208.059 33.8442 217.053 33.8442C224.573 33.8442 233.539 32.3705 233.539 25.3158C233.539 20.699 230.613 18.4126 223.751 17.6695C222.573 17.5263 219.152 17.1747 217.015 16.9979C211.541 16.4042 209.316 16.0884 209.316 14.139C209.316 12.1221 211.714 11.739 216.139 11.739C219.636 11.739 221.895 12.3705 222.853 13.6442C223.114 13.958 223.311 14.3199 223.434 14.7095H232.558C232.375 13.8953 232.084 13.1088 231.695 12.3705C229.589 8.33053 224.446 6.28421 216.387 6.28421C206.629 6.28421 200.324 9.50737 200.324 14.4947C200.324 19.2526 203.863 21.6021 212.154 22.3516C213.206 22.4421 215.499 22.659 217.318 22.8316L218.24 22.9179C222.718 23.3895 224.693 23.6842 224.693 25.7411C224.693 27.9558 222.139 28.3895 217.728 28.3895C213.648 28.3895 211.072 27.7768 210.076 26.5705C209.769 26.1859 209.537 25.7465 209.394 25.2758H200.234ZM254.583 34.8611C243.594 34.8611 237.53 30.4168 237.53 22.3453V5.65474H248.166V22.3453C248.166 25.1137 250.644 26.7011 254.962 26.7011C259.088 26.7011 261.65 25.0442 261.65 22.3811V5.65474H272.177V23.2295C272.187 30.6211 265.768 34.8611 254.577 34.8611H254.583ZM238.583 6.70737V22.3453C238.583 32.32 248.6 33.8084 254.583 33.8084C260.768 33.8084 271.141 32.4337 271.141 23.2295V6.70737H262.72V22.3811C262.72 25.6442 259.68 27.7537 254.979 27.7537C250.065 27.7537 247.13 25.7326 247.13 22.3453V6.70737H238.583ZM316.783 34.4716H306.745V21.4611L301.053 34.4716H292.297L286.663 21.4863V34.4716H276.589V5.65474H289.84L296.724 21.5432L303.941 5.65474H316.796L316.783 34.4716ZM307.798 33.419H315.73V6.70737H304.61L296.69 24.1368L289.141 6.70737H277.634V33.419H285.602V16.4211L292.97 33.4253H300.339L307.785 16.4463L307.798 33.419ZM12.7452 6.18106H3.15784V33.9453H29.6505V26.5537H12.7452V6.18106ZM49.002 5.54948C36.7641 5.54948 30.3284 11.3495 30.3284 19.8653C30.3284 29.4863 37.0841 34.3663 49.002 34.3663C62.122 34.3663 67.6399 28.7074 67.6399 19.8653C67.6399 10.8863 61.4147 5.54527 49.002 5.54527V5.54948ZM48.9663 12.7642C49.7993 12.7603 50.6319 12.8088 51.4589 12.9095L40.741 23.6274C40.2338 22.4802 39.9865 21.235 40.0168 19.9811C40.0168 15.6253 42.2105 12.76 48.9663 12.76V12.7642ZM49.002 27.2653C48.1993 27.2688 47.3972 27.2238 46.5999 27.1305L57.3368 16.3937C57.825 17.5219 58.0587 18.7439 58.021 19.9726C58.021 24.2105 55.9999 27.2611 49.002 27.2611V27.2653ZM86.6357 23.4758H96.5031C96.3578 24.1606 96.0551 24.8021 95.6189 25.3495C93.5732 27.016 90.9625 27.827 88.3326 27.6126C87.0088 27.7543 85.6702 27.6097 84.4073 27.1886C83.1444 26.7678 81.9865 26.0802 81.0126 25.1726C80.0149 23.7093 79.541 21.9518 79.6673 20.1853C79.5058 18.3342 80.0212 16.4874 81.1178 14.9874C82.4968 13.4295 84.8315 12.7579 88.2631 12.7579C90.4465 12.5771 92.6271 13.1379 94.4526 14.3495C95.0279 14.8065 95.458 15.4209 95.6905 16.1179H104.842C104.776 14.9694 104.499 13.8428 104.027 12.7937C101.836 8.33685 96.741 5.68421 88.0778 5.68421C80.5431 5.68421 75.4863 7.98316 72.6926 11.4505C70.8475 13.9544 69.9004 17.0072 70.0041 20.1158C69.8848 23.2947 70.8075 26.4255 72.6315 29.0316C75.3915 32.6105 80.3073 34.3705 86.2147 34.3705C90.142 34.6444 94.0427 33.5444 97.2484 31.259L97.4968 33.9453H105.099V17.499H86.6357V23.4758ZM126.676 5.54316C114.44 5.54316 108.002 11.3432 108.002 19.859C108.002 29.48 114.756 34.36 126.676 34.36C139.798 34.36 145.316 28.7011 145.316 19.859C145.316 10.8863 139.09 5.54527 126.676 5.54527V5.54316ZM126.642 12.7579C127.453 12.7555 128.264 12.8019 129.069 12.8968L118.394 23.579C117.902 22.4444 117.663 21.2171 117.693 19.9811C117.684 15.6253 119.886 12.7579 126.642 12.7579ZM126.676 27.259C125.852 27.2625 125.028 27.2145 124.21 27.1158L134.983 16.3411C135.49 17.4843 135.732 18.727 135.693 19.9768C135.697 24.2105 133.684 27.2611 126.676 27.2611V27.259Z" fill="white"/>
</svg>
