<svg width="272" height="40" viewBox="0 0 272 40" fill="none" xmlns="http://www.w3.org/2000/svg">
<path d="M35.2805 36.5809C39.4846 32.5622 41.8465 27.1118 41.8465 21.4286C41.8465 15.7454 39.4846 10.2949 35.2805 6.27629C31.0764 2.25765 25.3744 1.02188e-06 19.4289 0C13.4834 -1.02188e-06 7.78139 2.25764 3.57727 6.27628L10.9747 13.3473C12.142 14.4631 14.027 14.4074 15.512 13.7181C16.7213 13.1568 18.0589 12.8571 19.4289 12.8571C21.8071 12.8571 24.0879 13.7602 25.7695 15.3677C27.4512 16.9751 28.3959 19.1553 28.3959 21.4286C28.3959 22.7381 28.0825 24.0167 27.4952 25.1727C26.7741 26.5922 26.7159 28.394 27.8831 29.5098L35.2805 36.5809Z" fill="white"/>
<path d="M31.3846 40H20.4103C18.8248 40 17.3042 39.398 16.1832 38.3263L1.75093 24.5308C0.629826 23.4592 0 22.0057 0 20.4902V10L31.3846 40Z" fill="white"/>
<path d="M11.2088 39.9999H4.48351C2.00734 39.9999 0 38.0812 0 35.7142V29.2856L11.2088 39.9999Z" fill="white"/>
<path d="M255.405 6.9292C264.234 6.9292 271.423 13.8007 271.423 22.2407V33.0708H263.609V22.2407C263.609 19.1411 261.656 16.4522 258.921 15.1825V33.0708H251.107V22.2407C251.107 19.1411 249.153 16.4522 246.418 15.1825V33.0708H238.605V6.9292H242.902C245.871 6.9292 248.684 7.75079 251.107 9.13256V6.9292H255.405Z" fill="white"/>
<path d="M235.502 22.2407C235.502 28.2159 230.383 33.0708 224.171 33.0708C217.92 33.0708 212.841 28.2159 212.841 22.2407V6.9292H220.655V22.2407C220.655 24.108 222.218 25.6018 224.171 25.6018C226.085 25.6018 227.688 24.108 227.688 22.2407V6.9292H235.502V22.2407Z" fill="white"/>
<path d="M210.459 24.6682C210.459 29.2616 206.552 32.9961 201.747 32.9961H190.143V25.5271H201.747C202.215 25.5271 202.645 25.1536 202.645 24.6682C202.645 24.22 202.215 23.8466 201.747 23.8466H198.582C193.699 23.8466 189.752 20.0747 189.752 15.4066C189.752 10.7384 193.699 6.9292 198.582 6.9292H210.068V14.3982H198.582C197.996 14.3982 197.566 14.8464 197.566 15.4066C197.566 15.9294 197.996 16.3775 198.582 16.3775H201.747C206.552 16.3775 210.459 20.112 210.459 24.6682Z" fill="white"/>
<path d="M178.307 6.9292C183.778 6.9292 188.27 11.2239 188.27 16.4522C188.27 21.7179 183.778 25.9752 178.307 25.9752H175.377V33.0708H167.563V6.9292H178.307ZM178.307 18.5062C179.48 18.5062 180.456 17.6099 180.456 16.4522C180.456 15.3319 179.48 14.3982 178.307 14.3982H175.377V18.5062H178.307Z" fill="white"/>
<path d="M164.046 33.0708H156.233V6.9292H164.046V33.0708Z" fill="white"/>
<path d="M153.833 20C153.833 27.2076 147.659 33.0708 140.158 33.0708C132.618 33.0708 126.484 27.2076 126.484 20C126.484 12.8297 132.618 6.9292 140.158 6.9292C147.659 6.9292 153.833 12.8297 153.833 20ZM146.019 20C146.019 16.9377 143.362 14.3982 140.158 14.3982C136.915 14.3982 134.298 16.9377 134.298 20C134.298 23.0997 136.915 25.6018 140.158 25.6018C143.362 25.6018 146.019 23.0997 146.019 20Z" fill="white"/>
<path d="M124.211 18.3195V33.0708H114.443C106.903 33.0708 100.769 27.2076 100.769 20C100.769 12.8297 106.903 6.9292 114.443 6.9292H124.211V14.3982H114.443C111.201 14.3982 108.583 16.9377 108.583 20C108.583 23.0997 111.201 25.6018 114.443 25.6018H116.397V18.3195H124.211Z" fill="white"/>
<path d="M99.5027 20C99.5027 27.2076 93.3297 33.0708 85.8286 33.0708C78.2882 33.0708 72.1545 27.2076 72.1545 20C72.1545 12.8297 78.2882 6.9292 85.8286 6.9292C93.3297 6.9292 99.5027 12.8297 99.5027 20ZM91.6888 20C91.6888 16.9377 89.0322 14.3982 85.8286 14.3982C82.5858 14.3982 79.9683 16.9377 79.9683 20C79.9683 23.0997 82.5858 25.6018 85.8286 25.6018C89.0322 25.6018 91.6888 23.0997 91.6888 20Z" fill="white"/>
<path d="M71.3492 25.6018V33.0708H61.582C57.6752 33.0708 54.5497 30.0832 54.5497 26.3487V6.9292H62.3634V25.6018H71.3492Z" fill="white"/>
</svg>
