<svg width="230" height="40" viewBox="0 0 230 40" fill="none" xmlns="http://www.w3.org/2000/svg">
<path d="M88.4888 12.4324C88.4888 19.866 88.4888 22.8006 78.5958 22.8006C88.4888 22.8006 88.4888 25.735 88.4888 33.1688C88.4888 25.7792 88.4888 22.8006 98.2267 22.8006C88.4888 22.8006 88.4888 19.822 88.4888 12.4324Z" fill="white"/>
<path fill-rule="evenodd" clip-rule="evenodd" d="M39.7123 39.3838C36.2909 39.3838 33.283 38.7018 30.6885 37.3376C28.1224 35.945 26.1124 34.0124 24.6584 31.5398C24.4242 31.1289 24.2092 30.7068 24.0134 30.2737L22.8645 38.7869H0.0698242V38.3608H0.112631C1.13899 38.3608 1.96583 38.0906 2.59305 37.5507C3.22028 37.0107 3.53389 36.2293 3.53389 35.2061V10.6507C3.53389 9.62772 3.22028 8.80343 2.59305 8.1782C1.96583 7.55297 1.13899 7.24035 0.112631 7.24035H0.0698242V6.81401H13.7125V7.24035H13.5414C12.5149 7.24035 11.6881 7.55297 11.0609 8.1782C10.4336 8.80343 10.1201 9.62772 10.1201 10.6507V35.3766C10.1201 36.2861 10.3339 36.9966 10.7615 37.5081C11.2177 37.9912 12.0017 38.2328 13.1137 38.2328H14.0117C16.5493 38.2328 18.6876 37.4513 20.4268 35.8881C22.1231 34.3635 23.2091 32.2307 23.6849 29.4897C22.9082 27.4844 22.5201 25.2546 22.5201 22.8006C22.5201 19.4753 23.2328 16.5765 24.6584 14.1038C26.1124 11.6028 28.1224 9.67021 30.6885 8.30602C33.283 6.91346 36.2909 6.21716 39.7123 6.21716C43.0513 6.21716 45.9827 6.88036 48.507 8.20658C51.1996 6.88036 54.3266 6.21716 57.8882 6.21716C59.0001 6.21716 59.9124 6.25984 60.6252 6.345C61.3665 6.40195 62.0223 6.47301 62.5924 6.55817C63.1627 6.6435 63.79 6.72867 64.4742 6.81401C65.187 6.87078 66.0709 6.89917 67.1258 6.89917L68.4088 15.4255H67.9811C67.4679 12.7255 66.3133 10.6081 64.5171 9.07337C62.7493 7.53869 60.5397 6.77134 57.8882 6.77134C56.263 6.77134 54.7805 7.15501 53.4404 7.92235C52.5577 8.42788 51.7615 9.06288 51.052 9.82751C50.7218 10.1831 50.4104 10.567 50.1177 10.9789C50.0848 11.0254 50.0519 11.0722 50.0194 11.1195C49.7443 11.5265 49.4863 11.958 49.2453 12.4138C48.9282 13.0135 48.6405 13.6561 48.3827 14.3399C48.2759 14.6221 48.1743 14.9118 48.0778 15.2087C47.9782 15.5148 47.884 15.8287 47.7952 16.1501C47.282 18.1111 47.0255 20.2854 47.0255 22.6726C47.0255 24.8732 47.2265 26.8968 47.6287 28.7437L46.949 30.7559C46.5934 31.8089 46.1676 32.7302 45.6784 33.5282C45.3774 34.0018 45.0586 34.4269 44.7235 34.8064L44.6915 34.8428C43.6329 33.8817 42.7287 32.7807 41.979 31.5398C40.4678 29.0387 39.7123 26.0972 39.7123 22.7152C39.7123 19.4184 40.4678 16.5339 41.979 14.0613C43.0106 12.3729 44.3216 10.9431 45.9117 9.77161C45.2689 9.02798 44.5568 8.41161 43.7751 7.92235C42.5492 7.15501 41.1948 6.77134 39.7123 6.77134C38.2297 6.77134 36.8754 7.15501 35.6494 7.92235C34.4234 8.6897 33.3828 9.76966 32.5274 11.1624C31.6436 12.555 30.9593 14.2459 30.4747 16.2353C30.0185 18.1963 29.7903 20.3705 29.7903 22.7579C29.7903 25.1453 30.0185 27.3193 30.4747 29.2803C30.9593 31.2414 31.6436 32.9181 32.5274 34.3107C33.3828 35.7035 34.4234 36.7834 35.6494 37.5507C36.8754 38.3181 38.2297 38.7018 39.7123 38.7018C41.1948 38.7018 42.5492 38.3181 43.7751 37.5507C45.0011 36.7834 46.056 35.7035 46.9398 34.3107C47.7952 32.9181 48.4509 31.2414 48.9071 29.2803C49.3918 27.3193 49.6341 25.1453 49.6341 22.7579C49.6341 20.5994 49.4361 18.6151 49.0398 16.8052L49.7735 14.8605C50.1911 13.7536 50.6847 12.7873 51.2479 11.9527C51.3983 11.7348 51.5537 11.5269 51.714 11.3286C51.8533 11.1561 51.9963 10.991 52.143 10.833L52.1751 10.8061C53.1679 11.766 54.0173 12.8651 54.7234 14.1038C56.1775 16.5765 56.9045 19.4753 56.9045 22.8006C56.9045 26.1258 56.1775 29.0387 54.7234 31.5398C53.7569 33.2161 52.5218 34.6443 51.018 35.8243C51.6493 36.5131 52.3428 37.0886 53.0983 37.5507C54.3813 38.3181 55.8069 38.7018 57.375 38.7018C58.544 38.7018 59.6559 38.5029 60.7108 38.105C61.7942 37.707 62.621 37.2098 63.1912 36.6129V25.7421C63.1912 24.7189 62.8776 23.8946 62.2504 23.2694C61.6231 22.6442 60.7963 22.3315 59.7699 22.3315H59.6417V21.9052H71.3138C71.4316 18.9523 72.1384 16.3519 73.4346 14.1038C74.8886 11.6028 76.8987 9.67021 79.4647 8.30602C82.0592 6.91346 85.0672 6.21716 88.4886 6.21716C91.9098 6.21716 94.9035 6.91346 97.4695 8.30602C100.064 9.67021 102.074 11.6028 103.5 14.1038C104.437 15.6969 105.072 17.4669 105.405 19.4139V10.6507C105.405 9.62772 105.091 8.80343 104.464 8.1782C103.837 7.55297 103.01 7.24035 101.983 7.24035H101.941V6.81401H127.673C129.868 6.84239 131.778 7.22607 133.403 7.96503C135.057 8.67559 136.339 9.67021 137.252 10.9493C137.596 11.4159 137.876 11.9131 138.094 12.4405C138.444 10.7941 139.296 9.44438 140.647 8.39137C142.501 6.94184 144.939 6.21716 147.961 6.21716C148.702 6.21716 149.301 6.24555 149.757 6.30251C149.95 6.3251 150.138 6.34988 150.322 6.377C150.6 6.41804 150.868 6.46415 151.126 6.51549C151.582 6.60084 152.109 6.67189 152.708 6.72867C153.307 6.78562 154.077 6.81401 155.017 6.81401H168.527V7.24035H168.399C167.373 7.24035 166.546 7.55297 165.919 8.1782C165.292 8.80343 164.978 9.62772 164.978 10.6507V27.5751C164.978 30.5877 165.748 32.9751 167.287 34.7371C168.855 36.4708 170.965 37.3376 173.617 37.3376C176.297 37.3376 178.407 36.4565 179.946 34.6945C181.486 32.904 182.256 30.5309 182.256 27.5751V11.2902C182.256 10.0682 181.885 9.10193 181.144 8.39137C180.402 7.68079 179.419 7.29712 178.193 7.24035V6.81401H192.307L202.743 30.9003L213.178 6.81401H221.175V7.24035C220.263 7.24035 219.492 7.5103 218.865 8.05036C218.238 8.59026 217.953 9.32921 218.01 10.267L220.191 35.5044C220.333 36.4708 220.789 37.1955 221.56 37.6786C222.358 38.1618 223.142 38.4033 223.911 38.4033V38.7869H210.654V38.4033C211.139 38.4033 211.637 38.2898 212.151 38.0622C212.664 37.835 213.078 37.5081 213.391 37.0818C213.734 36.6554 213.862 36.1581 213.776 35.5898L211.68 12.0576L199.792 39.3838L187.817 12.0149L185.807 34.4387C185.692 35.5754 186.02 36.4992 186.79 37.2098C187.56 37.9202 188.501 38.3038 189.613 38.3608V38.7869H181.06V38.3608C182.142 38.3038 183.056 37.906 183.796 37.1671C184.538 36.4281 184.965 35.5044 185.08 34.3961L187.218 10.8213C186.676 9.71288 185.992 8.8461 185.165 8.22087C185.024 8.10533 184.876 8.0001 184.719 7.905C184.495 8.0453 184.287 8.20731 184.095 8.39137C183.353 9.10193 182.983 10.0682 182.983 11.2902V27.5751C182.983 29.9625 182.484 32.0373 181.486 33.7992C180.517 35.5614 179.105 36.9396 177.252 37.9344C175.427 38.9007 173.246 39.3838 170.709 39.3838C168.2 39.3838 166.019 38.9007 164.165 37.9344C162.312 36.968 160.872 35.6038 159.846 33.8419C158.848 32.0513 158.349 29.9625 158.349 27.5751V10.6507C158.349 9.62772 158.035 8.80343 157.408 8.1782C156.803 7.57556 156.013 7.26349 155.039 7.24162L155.445 15.4255H155.017C154.619 12.7822 153.763 10.6934 152.452 9.15871C151.139 7.62402 149.558 6.85668 147.704 6.85668C146.393 6.85668 145.338 7.24035 144.54 8.00769C143.77 8.77504 143.385 9.79825 143.385 11.0771C143.385 12.1854 143.741 13.2512 144.454 14.2744C145.196 15.2691 146.464 16.4343 148.26 17.7701L150.099 19.1343C151.981 20.4985 153.464 21.7631 154.547 22.9284C155.659 24.0652 156.457 25.1737 156.942 26.2536C157.427 27.3336 157.669 28.4846 157.669 29.7066C157.669 31.5823 157.199 33.2451 156.257 34.6943C155.317 36.1439 154.005 37.2807 152.323 38.105C150.67 38.9007 148.716 39.327 146.464 39.3838C145.723 39.3838 145.109 39.3554 144.625 39.2986C144.169 39.2417 143.713 39.1706 143.257 39.0855C142.801 39.0001 142.245 38.9291 141.589 38.8723C140.933 38.8155 140.035 38.7869 138.895 38.7869L137.397 27.7029H137.911C138.339 31.1986 139.308 33.8986 140.819 35.8029C142.358 37.6786 144.326 38.6165 146.72 38.6165C148.488 38.6165 149.928 38.1192 151.041 37.1244C152.152 36.1297 152.708 34.8365 152.708 33.2451C152.708 32.5628 152.58 31.9093 152.323 31.284C152.095 30.6588 151.696 29.9909 151.126 29.2803C150.555 28.57 149.8 27.8025 148.859 26.9782C147.918 26.1258 146.749 25.1737 145.352 24.122L143.598 22.8006C141.461 21.1806 139.978 19.731 139.151 18.4522C138.89 18.0483 138.669 17.633 138.491 17.2062C138.277 18.2376 137.864 19.1786 137.252 20.0296C136.339 21.3084 135.028 22.3175 133.318 23.0562C131.635 23.7668 129.64 24.122 127.33 24.122H123.396V34.9502C123.396 35.9734 123.709 36.7976 124.336 37.4227C124.963 38.0482 125.79 38.3608 126.817 38.3608H126.902V38.7869H101.941V38.3608H101.983C103.01 38.3608 103.837 38.0482 104.464 37.4227C105.091 36.7976 105.405 35.9734 105.405 34.9502V26.1927C105.072 28.1461 104.437 29.9285 103.5 31.5398C102.074 34.0124 100.064 35.945 97.4695 37.3376C94.9035 38.7018 91.9098 39.3838 88.4886 39.3838C85.0672 39.3838 82.0592 38.7018 79.4647 37.3376C76.8987 35.945 74.8886 34.0124 73.4346 31.5398C72.0149 29.0491 71.3021 26.1499 71.2962 22.8416C71.1041 22.9627 70.9256 23.1053 70.761 23.2694C70.1337 23.8946 69.8201 24.7189 69.8201 25.7421V36.6129C69.2499 37.1812 68.3375 37.6786 67.083 38.105C65.8571 38.5029 64.46 38.8155 62.8918 39.0428C61.3523 39.2702 59.8127 39.3838 58.2731 39.3838C54.5514 39.3838 51.3104 38.7269 48.55 37.4128C46.016 38.7269 43.07 39.3838 39.7123 39.3838ZM92.5514 37.5507C91.3254 38.3181 89.9711 38.7018 88.4886 38.7018C87.0059 38.7018 85.6517 38.3181 84.4256 37.5507C83.1997 36.7834 82.1591 35.7035 81.3037 34.3107C80.4199 32.9181 79.7356 31.2414 79.2508 29.2803C78.7947 27.3193 78.5666 25.1453 78.5666 22.7579C78.5666 20.3705 78.7947 18.1963 79.2508 16.2353C79.7356 14.2459 80.4199 12.555 81.3037 11.1624C82.1591 9.76966 83.1997 8.6897 84.4256 7.92235C85.6517 7.15501 87.0059 6.77134 88.4886 6.77134C89.9711 6.77134 91.3254 7.15501 92.5514 7.92235C93.7773 8.6897 94.8323 9.76966 95.7161 11.1624C96.5715 12.555 97.2271 14.2459 97.6833 16.2353C98.168 18.1963 98.4107 20.3705 98.4107 22.7579C98.4107 25.1453 98.168 27.3193 97.6833 29.2803C97.2271 31.2414 96.5715 32.9181 95.7161 34.3107C94.8323 35.7035 93.7773 36.7834 92.5514 37.5507ZM115.868 37.4227C115.468 37.8223 114.985 38.0942 114.422 38.2385C113.858 38.0942 113.375 37.8223 112.974 37.4227C112.348 36.7976 112.034 35.9734 112.034 34.9502V10.6507C112.034 9.62772 112.348 8.80343 112.974 8.1782C113.375 7.77862 113.858 7.50668 114.422 7.36258C114.985 7.50668 115.468 7.77862 115.868 8.1782C116.496 8.80343 116.81 9.62772 116.81 10.6507V34.9502C116.81 35.9734 116.496 36.7976 115.868 37.4227ZM125.919 23.5679H123.396V7.36818H125.876C127.102 7.36818 128.171 7.72347 129.084 8.43404C129.996 9.11604 130.695 10.0682 131.179 11.2902C131.692 12.5123 131.949 13.9049 131.949 15.468C131.949 17.0312 131.692 18.4238 131.179 19.6459C130.695 20.8679 129.996 21.8341 129.084 22.5447C128.2 23.2269 127.145 23.5679 125.919 23.5679Z" fill="white"/>
<path d="M229.544 3.32173C229.544 4.95779 228.214 6.28406 226.572 6.28406C224.931 6.28406 223.6 4.95779 223.6 3.32173C223.6 1.68568 224.931 0.359394 226.572 0.359394C228.214 0.359394 229.544 1.68568 229.544 3.32173Z" fill="white"/>
</svg>
